<?xml version="1.0" standalone="no"?>
<!DOCTYPE svg PUBLIC "-//W3C//DTD SVG 20010904//EN"
 "http://www.w3.org/TR/2001/REC-SVG-20010904/DTD/svg10.dtd">
<svg version="1.0" xmlns="http://www.w3.org/2000/svg"
 width="32.000000pt" height="32.000000pt" viewBox="0 0 32.000000 32.000000"
 preserveAspectRatio="xMidYMid meet">

<g transform="translate(0.000000,32.000000) scale(0.100000,-0.100000)"
fill="#000000" stroke="none">
<path d="M113 309 c-99 -29 -139 -159 -78 -246 15 -22 18 -22 46 -7 39 20 44
35 25 73 -17 32 -13 103 7 129 12 16 82 16 94 0 20 -25 24 -98 8 -121 -24 -34
-18 -60 17 -80 32 -18 33 -18 50 3 10 12 22 39 28 61 32 116 -80 223 -197 188z"/>
</g>
</svg>
